<svg width="112" height="11" viewBox="0 0 112 11" fill="none" xmlns="http://www.w3.org/2000/svg">
<path d="M5.83209 10.042C4.91742 10.042 4.08209 9.82267 3.32609 9.384C2.57942 8.94533 1.98675 8.348 1.54809 7.592C1.11875 6.836 0.904086 6.00533 0.904086 5.1C0.904086 4.19467 1.11875 3.364 1.54809 2.608C1.98675 1.852 2.58409 1.25467 3.34009 0.816C4.09609 0.377333 4.93609 0.158 5.86009 0.158C6.78409 0.158 7.61942 0.372667 8.36609 0.802C9.12209 1.23133 9.71475 1.824 10.1441 2.58C10.5734 3.32667 10.7881 4.15733 10.7881 5.072C10.7881 5.98667 10.5688 6.82667 10.1301 7.592C9.69142 8.348 9.09409 8.94533 8.33809 9.384C7.58209 9.82267 6.74675 10.042 5.83209 10.042ZM5.83209 9.272C6.60675 9.272 7.30675 9.08533 7.93209 8.712C8.56675 8.33867 9.06609 7.83467 9.43009 7.2C9.79409 6.556 9.97609 5.84667 9.97609 5.072C9.97609 4.29733 9.79875 3.59733 9.44409 2.972C9.08942 2.33733 8.59942 1.838 7.97409 1.474C7.34875 1.11 6.64409 0.928 5.86009 0.928C5.07609 0.928 4.36675 1.11467 3.73209 1.488C3.09742 1.852 2.59809 2.35133 2.23409 2.986C1.87942 3.62067 1.70209 4.32533 1.70209 5.1C1.70209 5.87467 1.87942 6.57933 2.23409 7.214C2.59809 7.84867 3.09275 8.35267 3.71809 8.726C4.35275 9.09 5.05742 9.272 5.83209 9.272ZM5.98609 7.956C5.41675 7.956 4.90809 7.83467 4.46009 7.592C4.01209 7.34933 3.66209 7.01333 3.41009 6.584C3.15809 6.14533 3.03209 5.65067 3.03209 5.1C3.03209 4.54933 3.15809 4.05933 3.41009 3.63C3.66209 3.19133 4.01209 2.85067 4.46009 2.608C4.90809 2.36533 5.41675 2.244 5.98609 2.244C6.50875 2.244 6.97075 2.356 7.37209 2.58C7.78275 2.79467 8.10009 3.08867 8.32409 3.462L7.30209 4.134C7.01275 3.66733 6.56942 3.434 5.97209 3.434C5.51475 3.434 5.13209 3.588 4.82409 3.896C4.52542 4.19467 4.37609 4.596 4.37609 5.1C4.37609 5.604 4.52542 6.01 4.82409 6.318C5.13209 6.61667 5.51475 6.766 5.97209 6.766C6.56942 6.766 7.01275 6.53267 7.30209 6.066L8.32409 6.71C8.10009 7.102 7.78275 7.41 7.37209 7.634C6.97075 7.84867 6.50875 7.956 5.98609 7.956ZM16.5885 0.199999H18.4085V8.46H23.5325V10H16.5885V0.199999ZM32.3193 8.474V10H24.9693V0.199999H32.1233V1.726H26.7893V4.274H31.5213V5.772H26.7893V8.474H32.3193ZM33.5288 5.38H37.3788V6.836H33.5288V5.38ZM44.0659 10.14C43.0765 10.14 42.1805 9.92533 41.3779 9.496C40.5845 9.05733 39.9592 8.45533 39.5019 7.69C39.0539 6.92467 38.8299 6.06133 38.8299 5.1C38.8299 4.13867 39.0585 3.27533 39.5159 2.51C39.9732 1.74467 40.5985 1.14733 41.3919 0.717999C42.1945 0.279333 43.0905 0.0599995 44.0799 0.0599995C44.8825 0.0599995 45.6152 0.2 46.2779 0.48C46.9405 0.76 47.5005 1.166 47.9579 1.698L46.7819 2.804C46.0725 2.03867 45.1999 1.656 44.1639 1.656C43.4919 1.656 42.8899 1.80533 42.3579 2.104C41.8259 2.39333 41.4105 2.79933 41.1119 3.322C40.8132 3.84467 40.6639 4.43733 40.6639 5.1C40.6639 5.76267 40.8132 6.35533 41.1119 6.878C41.4105 7.40067 41.8259 7.81133 42.3579 8.11C42.8899 8.39933 43.4919 8.544 44.1639 8.544C45.1999 8.544 46.0725 8.15667 46.7819 7.382L47.9579 8.502C47.5005 9.034 46.9359 9.44 46.2639 9.72C45.6012 10 44.8685 10.14 44.0659 10.14ZM54.0747 10.14C53.076 10.14 52.1753 9.92533 51.3727 9.496C50.57 9.05733 49.94 8.45533 49.4827 7.69C49.0253 6.91533 48.7967 6.052 48.7967 5.1C48.7967 4.148 49.0253 3.28933 49.4827 2.524C49.94 1.74933 50.57 1.14733 51.3727 0.717999C52.1753 0.279333 53.076 0.0599995 54.0747 0.0599995C55.0733 0.0599995 55.974 0.279333 56.7767 0.717999C57.5793 1.14733 58.2093 1.74467 58.6667 2.51C59.124 3.27533 59.3527 4.13867 59.3527 5.1C59.3527 6.06133 59.124 6.92467 58.6667 7.69C58.2093 8.45533 57.5793 9.05733 56.7767 9.496C55.974 9.92533 55.0733 10.14 54.0747 10.14ZM54.0747 8.544C54.728 8.544 55.316 8.39933 55.8387 8.11C56.3613 7.81133 56.772 7.40067 57.0707 6.878C57.3693 6.346 57.5187 5.75333 57.5187 5.1C57.5187 4.44667 57.3693 3.85867 57.0707 3.336C56.772 2.804 56.3613 2.39333 55.8387 2.104C55.316 1.80533 54.728 1.656 54.0747 1.656C53.4213 1.656 52.8333 1.80533 52.3107 2.104C51.788 2.39333 51.3773 2.804 51.0787 3.336C50.78 3.85867 50.6307 4.44667 50.6307 5.1C50.6307 5.75333 50.78 6.346 51.0787 6.878C51.3773 7.40067 51.788 7.81133 52.3107 8.11C52.8333 8.39933 53.4213 8.544 54.0747 8.544ZM67.6938 10L65.6918 7.13C65.6078 7.13933 65.4818 7.144 65.3138 7.144H63.1018V10H61.2818V0.199999H65.3138C66.1632 0.199999 66.9005 0.339999 67.5258 0.62C68.1605 0.899999 68.6458 1.30133 68.9818 1.824C69.3178 2.34667 69.4858 2.96733 69.4858 3.686C69.4858 4.42333 69.3038 5.058 68.9398 5.59C68.5852 6.122 68.0718 6.51867 67.3998 6.78L69.6538 10H67.6938ZM67.6518 3.686C67.6518 3.06067 67.4465 2.58 67.0358 2.244C66.6252 1.908 66.0232 1.74 65.2298 1.74H63.1018V5.646H65.2298C66.0232 5.646 66.6252 5.478 67.0358 5.142C67.4465 4.79667 67.6518 4.31133 67.6518 3.686ZM73.3733 1.74H70.1253V0.199999H78.4413V1.74H75.1933V10H73.3733V1.74ZM87.1572 8.474V10H79.8072V0.199999H86.9612V1.726H81.6272V4.274H86.3592V5.772H81.6272V8.474H87.1572ZM89.7148 10.098C89.3975 10.098 89.1268 9.99067 88.9028 9.776C88.6788 9.552 88.5668 9.272 88.5668 8.936C88.5668 8.59067 88.6742 8.31067 88.8888 8.096C89.1128 7.88133 89.3882 7.774 89.7148 7.774C90.0415 7.774 90.3122 7.88133 90.5268 8.096C90.7508 8.31067 90.8628 8.59067 90.8628 8.936C90.8628 9.272 90.7508 9.552 90.5268 9.776C90.3028 9.99067 90.0322 10.098 89.7148 10.098ZM99.1528 10L97.1508 7.13C97.0668 7.13933 96.9408 7.144 96.7728 7.144H94.5608V10H92.7408V0.199999H96.7728C97.6221 0.199999 98.3595 0.339999 98.9848 0.62C99.6195 0.899999 100.105 1.30133 100.441 1.824C100.777 2.34667 100.945 2.96733 100.945 3.686C100.945 4.42333 100.763 5.058 100.399 5.59C100.044 6.122 99.5308 6.51867 98.8588 6.78L101.113 10H99.1528ZM99.1108 3.686C99.1108 3.06067 98.9055 2.58 98.4948 2.244C98.0841 1.908 97.4821 1.74 96.6888 1.74H94.5608V5.646H96.6888C97.4821 5.646 98.0841 5.478 98.4948 5.142C98.9055 4.79667 99.1108 4.31133 99.1108 3.686ZM107.195 10.14C105.842 10.14 104.787 9.762 104.031 9.006C103.275 8.24067 102.897 7.14867 102.897 5.73V0.199999H104.717V5.66C104.717 7.58267 105.548 8.544 107.209 8.544C108.861 8.544 109.687 7.58267 109.687 5.66V0.199999H111.479V5.73C111.479 7.14867 111.101 8.24067 110.345 9.006C109.598 9.762 108.548 10.14 107.195 10.14Z" fill="white"/>
</svg>
